<?xml version="1.0" ?><svg data-name="Layer 1" id="Layer_1" viewBox="0 0 32 32" xmlns="http://www.w3.org/2000/svg"><defs><style>.cls-1{fill:#ba63c6;}</style></defs><title/><path class="cls-1" d="M4,16a7,7,0,0,1,7-7h8.36l-1.52.39-1.26,1.26a2,2,0,1,0,2.83,2.83l5-5a2,2,0,0,0,0-2.83l-5-5a2,2,0,0,0-2.83,2.83l1.17,1.17L19.3,5H11A11,11,0,0,0,2.78,23.31a2,2,0,0,0,3-2.66A7,7,0,0,1,4,16Z"/><path class="cls-1" d="M29.18,8.64a2,2,0,0,0-3,2.68A7,7,0,0,1,21,23H13l1.24-.42,1.16-1.16a2,2,0,0,0-2.83-2.83l-5,5a2,2,0,0,0,0,2.83l5,5a2,2,0,0,0,2.83-2.83l-1.22-1.22L13,27h8A11,11,0,0,0,29.18,8.64Z"/></svg>